<?xml version="1.0" encoding="utf-8"?>
<!-- Generator: Adobe Illustrator 22.1.0, SVG Export Plug-In . SVG Version: 6.00 Build 0)  -->
<svg version="1.1" id="Layer_1" xmlns="http://www.w3.org/2000/svg" xmlns:xlink="http://www.w3.org/1999/xlink" x="0px" y="0px"
	 viewBox="0 0 1366 768" style="enable-background:new 0 0 1366 768;" xml:space="preserve">
<style type="text/css">
	.st0{fill:url(#SVGID_1_);}
	.st1{fill:#2E5072;}
	.st2{font-family:'TimesNewRomanPSMT';}
	.st3{font-size:457.7295px;}
</style>
<linearGradient id="SVGID_1_" gradientUnits="userSpaceOnUse" x1="550.9331" y1="364.764" x2="804.1659" y2="409.4157" gradientTransform="matrix(1 0 0 -1 0 768)">
	<stop  offset="0.3301" style="stop-color:#787878"/>
	<stop  offset="0.5779" style="stop-color:#7A7A79"/>
	<stop  offset="0.6889" style="stop-color:#81817A"/>
	<stop  offset="0.7726" style="stop-color:#8E8D7E"/>
	<stop  offset="0.8427" style="stop-color:#A09E82"/>
	<stop  offset="0.9042" style="stop-color:#B8B488"/>
	<stop  offset="0.9588" style="stop-color:#D4CF8F"/>
	<stop  offset="1" style="stop-color:#EFE996"/>
</linearGradient>
<path class="st0" d="M670.2,169.1c0,0,106,89.2,95.2,127L730,344.9l50.9-25.1c0,0,12.7-9.7,20.1,27.6c0,0,37,98.7-68.6,178.1
	c0,0-42.3-11.9-53.3,17.7c0,0-18.1,13-11.1,52.5l-31.7,3.3c0,0,21.7-25.3,14-42.5c-9.1-20.3-27.2-21.2-27.2-21.2
	s-119.3-59.2-33-177.7l41.7,26.6l-16.2-76.4C615.6,307.6,674.6,186.1,670.2,169.1z"/>
<text transform="matrix(1 0 0 1 615.5676 543.046)" class="st1 st2 st3">B</text>
</svg>
